<?xml version="1.0" encoding="UTF-8"?>
<svg width="512px" height="512px" viewBox="0 0 512 512" version="1.1" xmlns="http://www.w3.org/2000/svg" xmlns:xlink="http://www.w3.org/1999/xlink">
    <!-- Generator: Sketch 60.1 (88133) - https://sketch.com -->
    <title>browser</title>
    <desc>Created with Sketch.</desc>
    <g id="Page-1" stroke="none" stroke-width="1" fill="none" fill-rule="evenodd">
        <g id="browser" fill-rule="nonzero">
            <rect id="invisible" fill-opacity="0.01" fill="#FFFFFF" x="0" y="0" width="512" height="512"></rect>
            <g id="google-chrome" transform="translate(109.000000, 119.000000)" fill="#18A2AD">
                <path d="M146.5,263.7 L197.189,175.8 L197.0425,175.8 C202.0235,167.01 205.1,157.1945 205.1,146.5 C205.1,128.92 197.189,113.2445 184.883,102.55 L255.0565,102.55 C260.6235,116.1745 263.7,130.971 263.7,146.5 C263.7,211.253 211.253,263.7 146.5,263.7 M29.3,146.5 C29.3,125.111 35.0135,105.187 44.9755,87.9 L95.811,175.8 L95.9575,175.8 C106.066,193.2335 124.525,205.1 146.5,205.1 C153.0925,205.1 159.392,203.7815 165.3985,201.7305 L130.2385,262.3815 C73.25,254.4705 29.3,205.686 29.3,146.5 M190.45,146.5 C190.45,170.819 170.819,190.45 146.5,190.45 C122.181,190.45 102.55,170.819 102.55,146.5 C102.55,122.181 122.181,102.55 146.5,102.55 C170.819,102.55 190.45,122.181 190.45,146.5 M146.5,29.3 C189.864,29.3 227.661,52.8865 247.878,87.9 L146.5,87.9 C118.079,87.9 94.4925,108.117 89.072,134.9265 L54.205,74.422 C75.594,47.0265 108.996,29.3 146.5,29.3 M146.5,0 C65.632,0 0,65.632 0,146.5 C0,227.368 65.632,293 146.5,293 C227.368,293 293,227.368 293,146.5 C293,65.632 227.368,0 146.5,0 Z" id="Shape"></path>
            </g>
        </g>
    </g>
</svg>