<?xml version="1.0" encoding="UTF-8"?>
<svg width="512px" height="512px" viewBox="0 0 512 512" version="1.1" xmlns="http://www.w3.org/2000/svg" xmlns:xlink="http://www.w3.org/1999/xlink">
    <!-- Generator: Sketch 60.1 (88133) - https://sketch.com -->
    <title>browser</title>
    <desc>Created with Sketch.</desc>
    <g id="Page-1" stroke="none" stroke-width="1" fill="none" fill-rule="evenodd">
        <g id="browser" fill-rule="nonzero">
            <rect id="invisible" fill-opacity="0.01" fill="#FFFFFF" x="0" y="0" width="512" height="512"></rect>
            <g id="Microsoft_Edge-Logo.wine" transform="translate(124.000000, 114.000000)" fill="#18A2AD">
                <path d="M82.8876197,169.21875 C82.8876197,176.076562 83.9114732,182.310937 86.0036956,187.921875 C88.2294641,193.44375 91.1229632,198.386719 94.817739,202.70625 C98.5125147,207.025781 102.830506,210.721875 107.905258,213.839063 C112.801949,216.95625 118.143793,219.539063 123.84176,221.542969 C129.495212,223.591406 135.415757,225.105469 141.425332,226.085156 C147.523938,227.064844 153.444482,227.554688 159.454057,227.554688 C167.02167,227.554688 174.055098,226.975781 180.732404,225.773438 C187.409709,224.526563 193.908953,222.878906 200.319167,220.785938 C206.72938,218.692969 212.917017,216.199219 219.104653,213.349219 C225.336805,210.499219 231.657988,207.382031 238.157232,203.908594 L238.157232,264.292969 C230.901226,267.855469 223.778767,270.839063 216.656308,273.421875 C209.533848,275.915625 202.411389,278.097656 195.155384,279.834375 C187.899378,281.615625 180.554342,282.951563 173.031245,283.753125 C165.508147,284.554688 157.806988,285 149.794221,285 C139.110533,285 128.782967,283.753125 118.856039,281.303906 C108.929111,278.854688 99.625399,275.336719 90.9003864,270.705469 C82.1753738,266.074219 74.2071225,260.463281 66.9511171,253.872656 C59.6505963,247.282031 53.4629599,239.845313 48.2546615,231.607031 C43.0463632,223.36875 39.0399798,214.328906 36.1464808,204.621094 C33.3420124,194.913281 31.9175206,184.582031 31.9175206,173.627344 C31.9175206,161.915625 33.5200739,150.782812 36.7251806,140.139844 C39.9748026,129.452344 44.5598858,119.744531 50.6139761,110.838281 C56.6235512,101.932031 63.9685873,94.0054687 72.6490845,87.103125 C81.3295817,80.2007812 91.0784478,74.5453125 101.940198,70.18125 C96.019654,76.1039062 91.3900554,83.0953125 88.1404334,91.2445312 C84.8017806,99.3492187 82.7095582,107.498437 81.7747354,115.647656 L183.180749,115.647656 C183.180749,105.405469 182.156896,96.4992187 180.064673,88.8398437 C177.972451,81.1804687 174.633798,74.8125 169.959684,69.7804687 C165.330086,64.7039062 159.365026,60.8742187 152.01999,58.3804687 C144.674954,55.8421875 135.816395,54.5507812 125.444314,54.5507812 C113.202587,54.5507812 100.96086,56.3320312 88.7191332,60.028125 C76.4774063,63.590625 64.8588947,68.7117187 53.8190828,75.16875 C42.779271,81.7148437 32.6297665,89.41875 23.3705695,98.2359375 C14.1113724,107.142187 6.3211826,116.716406 0,127.092187 C1.33546111,115.06875 4.00638334,103.490625 7.70115908,92.4914062 C11.3959348,81.4921875 16.2926256,71.25 22.1686545,61.7648437 C28.0446834,52.4132812 34.9445658,43.8632812 42.8237863,36.2039062 C50.7030069,28.5445312 59.4280195,21.9539062 69.0878549,16.6101562 C78.7476902,11.2664062 88.9862254,6.946875 100.115068,4.05234375 C111.243911,1.5140625 123.084999,0 135.549303,0 C142.849824,0 150.105829,0.66796875 157.361834,1.959375 C164.61784,3.2953125 171.695784,5.0765625 178.595666,7.3921875 C192.3064,12.1125 204.548127,18.703125 215.320847,27.075 C226.093566,35.5359375 235.130186,45.1546875 242.475223,56.1539062 C249.820259,67.153125 255.38468,79.3101562 259.213002,92.5359375 C263.041324,105.761719 265,119.521875 265,133.816406 L265,169.21875 L82.8876197,169.21875 Z" id="Path"></path>
            </g>
        </g>
    </g>
</svg>