<?xml version="1.0" encoding="UTF-8"?>
<svg width="512px" height="512px" viewBox="0 0 512 512" version="1.1" xmlns="http://www.w3.org/2000/svg" xmlns:xlink="http://www.w3.org/1999/xlink">
    <!-- Generator: Sketch 60.1 (88133) - https://sketch.com -->
    <title>browser</title>
    <desc>Created with Sketch.</desc>
    <g id="Page-1" stroke="none" stroke-width="1" fill="none" fill-rule="evenodd">
        <g id="browser" fill-rule="nonzero">
            <rect id="invisible" fill-opacity="0.01" fill="#FFFFFF" x="0" y="0" width="512" height="512"></rect>
            <g id="firefox" transform="translate(113.000000, 114.000000)" fill="#18A2AD">
                <path d="M286,136.981448 C286,130.630097 284.411111,121.103069 282.822222,114.751718 C278.055556,87.7584738 263.755556,63.9409055 246.277778,44.8868508 C243.1,40.1233372 236.744444,35.3598235 230.388889,30.5963098 C212.911111,16.3057689 192.255556,6.77874153 168.422222,2.01522787 C120.755556,-5.92396157 73.0888889,9.95441731 41.3111111,43.2990129 C41.3111111,43.2990129 41.3111111,41.7111751 41.3111111,41.7111751 C39.7222222,38.5354993 39.7222222,38.5354993 38.1333333,38.5354993 C38.1333333,38.5354993 38.1333333,38.5354993 38.1333333,38.5354993 C36.5444444,35.3598235 36.5444444,33.7719856 34.9555556,32.1841477 C34.9555556,32.1841477 34.9555556,32.1841477 34.9555556,32.1841477 C34.9555556,29.008472 33.3666667,25.8327962 33.3666667,22.6571204 C28.6,24.2449583 28.6,29.008472 27.0111111,32.1841477 C27.0111111,32.1841477 27.0111111,32.1841477 27.0111111,32.1841477 C23.8333333,35.3598235 20.6555556,40.1233372 20.6555556,44.8868508 C20.6555556,44.8868508 20.6555556,44.8868508 20.6555556,44.8868508 C19.0666667,48.0625266 15.8888889,62.3530676 19.0666667,63.9409055 C19.0666667,63.9409055 19.0666667,63.9409055 20.6555556,63.9409055 C20.6555556,65.5287434 20.6555556,67.1165813 20.6555556,68.7044191 C17.4777778,71.8800949 15.8888889,73.4679328 15.8888889,75.0557707 C11.1222222,84.582798 6.35555556,92.5219875 4.76666667,102.049015 C4.76666667,105.224691 4.76666667,106.812528 4.76666667,108.400366 C4.76666667,108.400366 4.76666667,108.400366 4.76666667,108.400366 C4.76666667,108.400366 4.76666667,106.812528 4.76666667,106.812528 C1.58888889,109.988204 1.58888889,114.751718 0,117.927394 C1.58888889,117.927394 1.58888889,116.339556 3.17777778,116.339556 C-4.76666667,157.623341 6.35555556,200.494964 31.7777778,232.251722 C69.9111111,278.29902 135.055556,297.353075 192.255556,276.711182 C247.866667,256.06929 286,202.082802 286,141.744962 C286,140.157124 286,138.569286 286,136.981448 M166.833333,16.3057689 C190.666667,21.0692825 212.911111,32.1841477 230.388889,48.0625266 C231.977778,49.6503645 233.566667,52.8260403 233.566667,52.8260403 C228.8,48.0625266 217.677778,40.1233372 211.322222,43.2990129 C212.911111,48.0625266 231.977778,71.8800949 233.566667,73.4679328 C233.566667,73.4679328 238.333333,94.1098253 239.922222,95.6976632 C239.922222,95.6976632 239.922222,95.6976632 239.922222,95.6976632 C239.922222,95.6976632 239.922222,95.6976632 239.922222,95.6976632 C239.922222,98.873339 228.8,140.157124 228.8,146.508476 C228.8,148.096314 214.5,176.677395 216.088889,176.677395 C211.322222,187.792261 206.555556,187.792261 204.966667,189.380099 C203.377778,189.380099 193.844444,192.555774 182.722222,195.73145 C173.188889,197.319288 162.066667,200.494964 154.122222,198.907126 C149.355556,198.907126 143,198.907126 138.233333,195.73145 C136.644444,194.143612 123.933333,187.792261 120.755556,186.204423 C115.988889,184.616585 112.811111,181.440909 109.633333,178.265233 C114.4,178.265233 123.933333,178.265233 127.111111,178.265233 C136.644444,176.677395 177.955556,162.386854 176.366667,156.035503 C176.366667,151.271989 168.422222,148.096314 165.244444,144.920638 C160.477778,143.3328 141.411111,146.508476 133.466667,149.684151 C133.466667,149.684151 103.277778,141.744962 95.3333333,135.39361 C95.3333333,133.805773 93.7444444,124.278745 93.7444444,122.690907 C92.1555556,121.103069 98.5111111,116.339556 98.5111111,116.339556 C98.5111111,116.339556 114.4,100.461177 114.4,98.873339 C117.577778,98.873339 120.755556,95.6976632 122.344444,94.1098253 C120.755556,94.1098253 123.933333,92.5219875 128.7,89.3463117 C128.7,89.3463117 128.7,89.3463117 128.7,89.3463117 C133.466667,86.1706359 136.644444,86.1706359 136.644444,81.4071222 C136.644444,81.4071222 144.588889,67.1165813 135.055556,68.7044191 C135.055556,68.7044191 120.755556,67.1165813 115.988889,67.1165813 C111.222222,70.292257 109.633333,68.7044191 104.866667,67.1165813 C104.866667,67.1165813 101.688889,63.9409055 101.688889,62.3530676 C103.277778,59.1773918 114.4,35.3598235 119.166667,33.7719856 C115.988889,27.4206341 100.1,32.1841477 96.9222222,36.9476614 C96.9222222,36.9476614 84.2111111,46.4746887 77.8555556,48.0625266 C77.8555556,48.0625266 77.8555556,48.0625266 77.8555556,48.0625266 C77.8555556,46.4746887 69.9111111,44.8868508 61.9666667,44.8868508 C90.5666667,21.0692825 128.7,9.95441731 166.833333,16.3057689 Z" id="Shape"></path>
            </g>
        </g>
    </g>
</svg>