<?xml version="1.0" encoding="UTF-8"?>
<svg width="512px" height="512px" viewBox="0 0 512 512" version="1.1" xmlns="http://www.w3.org/2000/svg" xmlns:xlink="http://www.w3.org/1999/xlink">
    <!-- Generator: Sketch 60.1 (88133) - https://sketch.com -->
    <title>browser</title>
    <desc>Created with Sketch.</desc>
    <g id="Page-1" stroke="none" stroke-width="1" fill="none" fill-rule="evenodd">
        <g id="browser" fill-rule="nonzero">
            <rect id="invisible" fill-opacity="0.01" fill="#FFFFFF" x="0" y="0" width="512" height="512"></rect>
            <g id="safari-svgrepo-com" transform="translate(109.000000, 99.000000)" fill="#18A2AD">
                <path d="M146.998973,19.3043081 C141.724947,19.3043081 136.422163,19.5894819 131.168678,20.1536524 C132.935246,17.2607345 133.575112,14.0332262 132.908541,10.8952852 C131.527127,4.37849836 124.904552,0 116.428108,0 C114.696461,0 112.930921,0.1884 111.174624,0.560052459 C106.259046,1.60809181 101.944307,3.97493115 99.0274166,7.22611803 C95.9071651,10.7037967 94.6592698,14.8372721 95.5137956,18.8636786 C96.1844751,22.0335345 98.1266725,24.7473181 100.982966,26.6745574 C73.0948192,35.9071869 48.1102114,53.7001771 30.1631161,77.2234098 C10.4309659,103.084656 0,134.010052 0,166.652669 C0,247.899397 65.9433013,314 146.998973,314 C228.054644,314 294,247.899397 294,166.652669 C294,85.4038819 228.054644,19.3043081 146.998973,19.3043081 Z M116.428108,9.9718164 C120.256014,9.9718164 122.866837,11.494459 123.17804,12.9666557 C123.351616,13.7882033 122.88327,14.8516852 121.943497,15.8770754 C119.555549,14.7322623 116.811207,14.3935541 114.178816,14.954636 C111.57621,15.509541 109.226264,16.9199672 107.495644,18.9254492 C106.251857,18.3705443 105.415818,17.5973836 105.244297,16.7892197 C105.049153,15.8678098 105.651018,14.6313705 106.853722,13.4834688 C108.400496,12.0061246 110.7299,10.8520459 113.242124,10.3167016 C114.316444,10.0881508 115.388709,9.9718164 116.428108,9.9718164 Z M178.864978,269.041377 L167.141953,249.983121 C166.573981,249.058623 165.485282,248.589167 164.424315,248.816688 C163.361293,249.043181 162.557093,249.913115 162.412276,250.99101 L159.443005,273.143967 C155.313139,273.621659 151.136027,273.864623 146.998973,273.864623 C119.216615,273.864623 93.0529258,263.319371 73.0537363,244.115954 C73.2663407,244.031534 73.4707283,243.917259 73.6607371,243.772098 L131.665781,199.582519 C135.546068,201.395481 139.747829,202.520734 143.97732,202.881062 L158.695295,233.843521 C159.206778,234.919357 160.389966,235.502059 161.54748,235.253948 C162.7091,235.006866 163.549247,233.9928 163.580059,232.802688 L164.46437,198.529331 C167.703763,196.7524 170.624761,194.501895 173.180122,191.814879 L190.556164,197.98884 C191.677729,198.386229 192.921517,197.963102 193.567546,196.964479 C194.21563,195.965855 194.095463,194.653233 193.276883,193.790505 L180.583273,180.392485 C181.993446,176.953928 182.858242,173.361974 183.157122,169.677364 L214.032,154.926571 C215.105293,154.414905 215.686617,153.233029 215.440119,152.067626 C215.19362,150.903252 214.181953,150.061115 212.994654,150.030229 L181.424447,149.2128 L223.941212,93.1365181 C224.083976,92.9470885 224.197981,92.7432459 224.282201,92.5321967 C235.734078,104.529056 244.28858,119.033797 249.150749,134.711148 L230.137551,146.461954 C229.215239,147.032302 228.746893,148.123581 228.973876,149.188092 C229.198805,150.251574 230.066683,151.058708 231.14203,151.20284 L253.240559,154.179148 C253.720203,158.334243 253.960537,162.521252 253.960537,166.652669 C253.960537,195.28741 242.83527,222.211108 222.630666,242.462564 C210.350966,254.771364 195.254002,263.932957 178.864978,269.041377 Z M65.027151,184.117246 C64.8011947,183.052734 63.933317,182.246629 62.8579703,182.101469 L40.759441,179.122072 C40.2808244,174.966977 40.039462,170.780997 40.039462,166.65164 C40.039462,138.01175 51.1657573,111.088052 71.3693346,90.8396852 C83.6490341,78.5319148 98.7459983,69.3682623 115.132968,64.2567541 L126.85702,83.3180983 C127.426019,84.2436262 128.517799,84.7130819 129.575685,84.4845312 C130.63768,84.2580393 131.44188,83.3870754 131.586697,82.3102098 L134.556995,60.1582819 C138.68378,59.6795607 142.859864,59.4376262 146.998973,59.4376262 C174.782358,59.4376262 200.947074,69.9828786 220.945237,89.186295 C220.734686,89.2707148 220.532353,89.3849902 220.341317,89.5291214 L162.335246,133.718702 C158.458041,131.906767 154.257307,130.780485 150.024734,130.420157 L135.303678,99.4566688 C134.792195,98.3818623 133.60798,97.7981312 132.45252,98.0462426 C131.2909,98.2933246 130.449726,99.3073902 130.418914,100.497502 L129.53563,134.772919 C126.297264,136.548819 123.375238,138.798295 120.818851,141.485312 L103.441782,135.31135 C102.321244,134.91396 101.07643,135.338119 100.4304,136.335712 C99.7833432,137.334334 99.9035109,138.646957 100.722089,139.509685 L113.4157,152.908734 C112.007581,156.348321 111.144838,159.940276 110.843906,163.624885 L79.9669729,178.373619 C78.8947074,178.886315 78.3133834,180.06819 78.5598812,181.232564 C78.806379,182.396938 79.8180471,183.239076 81.0053449,183.26996 L112.578634,184.08739 L70.061869,240.163672 C69.9170515,240.354131 69.8030463,240.559003 69.7188263,240.771081 C58.2679756,228.7804 49.7145013,214.274629 44.8492507,198.589043 L63.8614219,186.840295 C64.7857886,186.272007 65.2520803,185.180728 65.027151,184.117246 Z M160.739173,189.151541 C158.189974,190.717423 155.40763,191.829292 152.470197,192.455233 C149.625202,193.062643 146.710365,193.197508 143.770878,192.841298 C143.655846,192.817619 143.538759,192.801148 143.4227,192.793941 C142.656503,192.688931 141.892359,192.548919 141.133352,192.372872 L158.76719,178.935731 C158.954117,178.794688 159.118449,178.629967 159.259158,178.443626 L172.657341,160.771088 C172.687127,160.901836 172.717939,161.033614 172.74567,161.16539 C175.055559,172.083324 170.233446,183.329672 160.739173,189.151541 Z M141.525695,140.847017 C143.349778,140.458892 145.201593,140.263285 147.028758,140.263285 C148.102051,140.263285 149.193831,140.332262 150.275339,140.468157 C150.371885,140.486688 150.469456,140.499043 150.566002,140.50625 C151.338361,140.612288 152.106613,140.753331 152.868702,140.929377 L135.231783,154.364459 C135.04691,154.505502 134.881551,154.670223 134.740842,154.856564 L121.340604,172.53116 C121.310819,172.399383 121.281034,172.267607 121.253303,172.135829 C118.239867,157.906997 127.33461,143.871712 141.525695,140.847017 Z" id="XMLID_26_"></path>
            </g>
        </g>
    </g>
</svg>