<svg xmlns="http://www.w3.org/2000/svg" viewBox="0 0 636 300"><title>swimlane-webform-data-integration</title><rect x="152.5" y="15.5" width="219" height="235" rx="3.995" ry="3.995" fill="#505050"/><rect x="157.5" y="19.5" width="209" height="226" rx="2.38" ry="2.38" fill="#737373"/><rect x="197.5" y="56.5" width="66" height="4" fill="#939393"/><rect x="197.5" y="75.5" width="75" height="8" fill="#939393"/><rect x="285.5" y="75.5" width="71" height="8" fill="#939393"/><rect x="197.5" y="170.5" width="75" height="8" fill="#939393"/><rect x="197.5" y="63.5" width="33" height="4" fill="#939393"/><rect x="208.5" y="91.5" width="64" height="4" fill="#939393"/><rect x="198.5" y="91.5" width="4" height="4" fill="#939393"/><rect x="208.5" y="101.5" width="64" height="4" fill="#939393"/><rect x="198.5" y="101.5" width="4" height="4" fill="#939393"/><rect x="284.5" y="91.5" width="63.999" height="4" fill="#939393"/><rect x="285.5" y="101.5" width="47" height="4" fill="#939393"/><rect x="285.5" y="149.5" width="60" height="8" fill="#939393"/><rect x="208.5" y="119.5" width="64" height="4" fill="#939393"/><rect x="198.5" y="119.5" width="4" height="4" fill="#939393"/><rect x="208.5" y="129.5" width="64" height="4" fill="#939393"/><rect x="198.5" y="129.5" width="4" height="4" fill="#939393"/><rect x="208.5" y="139.5" width="64" height="4" fill="#939393"/><rect x="198.5" y="139.5" width="4" height="4" fill="#939393"/><rect x="208.5" y="149.5" width="64" height="4" fill="#939393"/><rect x="198.5" y="149.5" width="4" height="4" fill="#939393"/><rect x="156.499" y="42.5" width="32.001" height="205" fill="#505050"/><path d="M366.5,44.5V21.876a2.376,2.376,0,0,0-2.376-2.376H159.876a2.376,2.376,0,0,0-2.376,2.376V44.5Z" fill="#69afe5"/><rect x="165.5" y="26.5" width="58" height="7" fill="#b5d5ea"/><rect x="160.5" y="56.5" width="7" height="7" fill="#939393"/><rect x="160.5" y="73.5" width="7" height="7" fill="#939393"/><rect x="160.5" y="90.5" width="7" height="7" fill="#939393"/><rect x="160.5" y="107.5" width="7" height="7" fill="#939393"/><rect x="277.5" y="120.5" width="30" height="4" fill="#939393"/><rect x="277.5" y="130.5" width="30" height="4" fill="#939393"/><rect x="164.5" y="37.5" width="36" height="7" fill="#fec94e"/><rect x="201.5" y="37.5" width="36" height="8" fill="#f08400"/><path d="M236.4,38.6v5.8H202.6V38.6h33.8m1.1-1.1h-36v8h36v-8Z" fill="#fff"/><rect x="238.5" y="37.5" width="36" height="7" fill="#fec94e"/><rect x="275.5" y="37.5" width="36" height="7" fill="#fec94e"/><rect x="312.5" y="37.5" width="36" height="7" fill="#fec94e"/><path d="M202,44.5h65a.5.5,0,0,1,.5.5V98.358a4.142,4.142,0,0,1-4.142,4.142H204.985a3.485,3.485,0,0,1-3.485-3.485V45A.5.5,0,0,1,202,44.5Z" fill="#fff"/><rect x="208.5" y="51.5" width="43" height="2" fill="#b2b2b2"/><rect x="207.5" y="61.5" width="50" height="2" fill="#b2b2b2"/><rect x="207.5" y="71.5" width="32" height="2" fill="#b2b2b2"/><rect x="207.5" y="81.5" width="44" height="2" fill="#b2b2b2"/><path d="M260.5,58.518h-.248V57.482h.248Zm-2.316,0h-1.035V57.482h1.035Zm-3.1,0h-1.035V57.482h1.035Zm-3.1,0h-1.035V57.482h1.035Zm-3.1,0H247.84V57.482h1.035Zm-3.1,0h-1.034V57.482h1.034Zm-3.1,0h-1.034V57.482h1.034Zm-3.1,0h-1.034V57.482h1.034Zm-3.1,0h-1.034V57.482h1.034Zm-3.1,0h-1.034V57.482h1.034Zm-3.1,0h-1.034V57.482h1.034Zm-3.1,0h-1.034V57.482h1.034Zm-3.1,0h-1.034V57.482h1.034Zm-3.1,0h-1.035V57.482h1.035Zm-3.1,0h-1.035V57.482h1.035Zm-3.1,0h-1.035V57.482h1.035Zm-3.1,0H210.6V57.482h1.034Zm-3.1,0H207.5V57.482h1.034Z" fill="#d2d2d2"/><rect x="207.5" y="91.5" width="50" height="2" fill="#b2b2b2"/><path d="M260.5,88.518h-.248V87.482h.248Zm-2.316,0h-1.035V87.482h1.035Zm-3.1,0h-1.035V87.482h1.035Zm-3.1,0h-1.035V87.482h1.035Zm-3.1,0H247.84V87.482h1.035Zm-3.1,0h-1.034V87.482h1.034Zm-3.1,0h-1.034V87.482h1.034Zm-3.1,0h-1.034V87.482h1.034Zm-3.1,0h-1.034V87.482h1.034Zm-3.1,0h-1.034V87.482h1.034Zm-3.1,0h-1.034V87.482h1.034Zm-3.1,0h-1.034V87.482h1.034Zm-3.1,0h-1.034V87.482h1.034Zm-3.1,0h-1.035V87.482h1.035Zm-3.1,0h-1.035V87.482h1.035Zm-3.1,0h-1.035V87.482h1.035Zm-3.1,0H210.6V87.482h1.034Zm-3.1,0H207.5V87.482h1.034Z" fill="#d2d2d2"/><path d="M260.5,68.518h-.248V67.482h.248Zm-2.316,0h-1.035V67.482h1.035Zm-3.1,0h-1.035V67.482h1.035Zm-3.1,0h-1.035V67.482h1.035Zm-3.1,0H247.84V67.482h1.035Zm-3.1,0h-1.034V67.482h1.034Zm-3.1,0h-1.034V67.482h1.034Zm-3.1,0h-1.034V67.482h1.034Zm-3.1,0h-1.034V67.482h1.034Zm-3.1,0h-1.034V67.482h1.034Zm-3.1,0h-1.034V67.482h1.034Zm-3.1,0h-1.034V67.482h1.034Zm-3.1,0h-1.034V67.482h1.034Zm-3.1,0h-1.035V67.482h1.035Zm-3.1,0h-1.035V67.482h1.035Zm-3.1,0h-1.035V67.482h1.035Zm-3.1,0H210.6V67.482h1.034Zm-3.1,0H207.5V67.482h1.034Z" fill="#d2d2d2"/><path d="M260.5,78.518h-.248V77.482h.248Zm-2.316,0h-1.035V77.482h1.035Zm-3.1,0h-1.035V77.482h1.035Zm-3.1,0h-1.035V77.482h1.035Zm-3.1,0H247.84V77.482h1.035Zm-3.1,0h-1.034V77.482h1.034Zm-3.1,0h-1.034V77.482h1.034Zm-3.1,0h-1.034V77.482h1.034Zm-3.1,0h-1.034V77.482h1.034Zm-3.1,0h-1.034V77.482h1.034Zm-3.1,0h-1.034V77.482h1.034Zm-3.1,0h-1.034V77.482h1.034Zm-3.1,0h-1.034V77.482h1.034Zm-3.1,0h-1.035V77.482h1.035Zm-3.1,0h-1.035V77.482h1.035Zm-3.1,0h-1.035V77.482h1.035Zm-3.1,0H210.6V77.482h1.034Zm-3.1,0H207.5V77.482h1.034Z" fill="#d2d2d2"/><rect x="73.5" y="108.5" width="140" height="93" fill="#e6e6e6"/><rect x="73.5" y="108.5" width="140" height="17" fill="#fec94e"/><rect x="83.5" y="124.5" width="130" height="11" fill="#fff"/><rect x="73.5" y="124.5" width="23" height="11" transform="translate(170 260) rotate(180)" fill="#d2d2d2"/><rect x="83.5" y="147.5" width="130" height="11" fill="#fff"/><rect x="73.5" y="147.5" width="23" height="11" transform="translate(170 306) rotate(180)" fill="#d2d2d2"/><rect x="83.5" y="170.5" width="130" height="11" fill="#fff"/><rect x="73.5" y="170.5" width="23" height="11" transform="translate(170 352) rotate(180)" fill="#d2d2d2"/><rect x="83.5" y="192.5" width="130" height="11" fill="#fff"/><rect x="73.5" y="192.5" width="23" height="12" transform="translate(170 397) rotate(180)" fill="#d2d2d2"/><rect x="111.5" y="117.5" width="18" height="3" fill="#fff"/><rect x="111.5" y="128.5" width="11" height="3" fill="#c2c2c2"/><rect x="111.5" y="140.5" width="15" height="3" fill="#c2c2c2"/><rect x="111.5" y="151.5" width="11" height="3" fill="#c2c2c2"/><rect x="111.5" y="162.5" width="16" height="3" fill="#c2c2c2"/><rect x="111.5" y="174.5" width="18" height="3" fill="#c2c2c2"/><rect x="111.5" y="185.5" width="11" height="3" fill="#c2c2c2"/><rect x="79.5" y="117.5" width="12" height="2" fill="#fff"/><rect x="79.5" y="129.5" width="6" height="2" fill="none"/><rect x="79.5" y="140.5" width="12" height="2" fill="#fff"/><rect x="79.5" y="152.5" width="8" height="2" fill="none"/><rect x="79.5" y="163.5" width="8" height="2" fill="#fff"/><rect x="79.5" y="174.5" width="12" height="2" fill="none"/><rect x="79.5" y="186.5" width="6" height="2" fill="#fff"/><rect x="79.5" y="197.5" width="9" height="2" fill="none"/><rect x="146.5" y="117.5" width="14" height="3" fill="#fff"/><rect x="146.5" y="128.5" width="18" height="3" fill="#c2c2c2"/><rect x="146.5" y="140.5" width="11" height="3" fill="#c2c2c2"/><rect x="146.5" y="151.5" width="18" height="3" fill="#c2c2c2"/><rect x="146.5" y="162.5" width="13" height="3" fill="#c2c2c2"/><rect x="146.5" y="174.5" width="9" height="3" fill="#c2c2c2"/><rect x="146.5" y="185.5" width="14" height="3" fill="#c2c2c2"/><rect x="182.5" y="117.5" width="18" height="3" fill="#fff"/><rect x="182.5" y="128.5" width="15" height="3" fill="#c2c2c2"/><rect x="182.5" y="140.5" width="5" height="3" fill="#c2c2c2"/><rect x="182.5" y="151.5" width="9" height="3" fill="#c2c2c2"/><rect x="182.5" y="162.5" width="11" height="3" fill="#c2c2c2"/><rect x="182.5" y="174.5" width="9" height="3" fill="#c2c2c2"/><rect x="182.5" y="185.5" width="18" height="3" fill="#c2c2c2"/><rect x="74.5" y="203.5" width="139" height="1" fill="#d2d2d2"/><path d="M354.5,117.5V274.9c0,6.91,35.369,12.511,79,12.511s79-5.6,79-12.511V117.5Z" fill="#b5d5ea"/><path d="M394.5,117.5h-40V274.9c0,4.662,16.117,8.725,40,10.877Z" fill="#939393"/><path d="M394.5,117.5h-40V274.9c0,4.662,16.117,8.725,40,10.877Z" fill="#8fc6e5"/><path d="M354.5,117.5V274.9c0,6.91,35.369,12.511,79,12.511s79-5.6,79-12.511V117.5Z" fill="none"/><path d="M364.5,120.214S358.2,106.968,434,106.968s69.232,11.019,69.232,11.019-17.24,8.792-62.938,8.792S364.5,120.214,364.5,120.214Z" fill="#69afe5"/><ellipse cx="433.368" cy="120.854" rx="61.976" ry="8.062" fill="#8fc6e5"/><path d="M433.368,105.074c-43.547,0-78.849,5.6-78.849,12.51s35.3,12.51,78.849,12.51,78.849-5.6,78.849-12.51S476.915,105.074,433.368,105.074Zm0,19.46c-34.229,0-61.976-3.609-61.976-8.062s27.747-8.062,61.976-8.062,61.976,3.609,61.976,8.062S467.6,124.534,433.368,124.534Z" fill="#daeaf4"/><path d="M512.5,183.876V181.9c-6.363,5.092-37.044,10.079-79.049,10.079-41.784,0-72.366-4.934-78.951-10v1.97c10.419,6.375,45.563,9.773,78.951,9.773C466.958,193.719,502.222,190.3,512.5,183.876Z" fill="#9ccbe7"/><path d="M512.5,152.284V150.3c-6.363,5.092-37.044,10.079-79.049,10.079-41.784,0-72.366-4.934-78.951-10v1.971c10.419,6.375,45.563,9.772,78.951,9.772C466.958,162.126,502.222,158.7,512.5,152.284Z" fill="#9ccbe7"/><path d="M512.5,245.081c-6.363,5.093-37.044,10.079-79.049,10.079-41.784,0-72.366-4.934-78.951-10v1.97c10.419,6.375,45.563,9.772,78.951,9.772,33.507,0,68.771-3.423,79.049-9.842Z" fill="#9ccbe7"/><path d="M512.5,215.469v-1.98c-6.363,5.092-37.044,10.078-79.049,10.078-41.784,0-72.366-4.933-78.951-10v1.97c10.419,6.375,45.563,9.772,78.951,9.772C466.958,225.311,502.222,221.888,512.5,215.469Z" fill="#9ccbe7"/><polygon points="354.5 189.5 226.5 189.5 226.5 101.5 228.5 101.5 228.5 187.5 354.5 187.5 354.5 189.5" fill="#d2d2d2"/><polygon points="355.5 164.5 303.5 164.5 303.5 126.5 305.5 126.5 305.5 162.5 355.5 162.5 355.5 164.5" fill="#d2d2d2"/><rect x="236.5" y="115.5" width="102" height="21" rx="1.986" ry="1.986" fill="#e6e6e6"/><rect x="245.5" y="124.5" width="48" height="3" fill="#b2b2b2"/><path d="M336.5,115.5h-22v21h22a2,2,0,0,0,2-2V117.5A2,2,0,0,0,336.5,115.5Z" fill="#4393d4"/><path d="M301.981,119.5H303.5v-1h-1.519a5.46,5.46,0,0,0-1.144.717,5.5,5.5,0,0,0-1.145-.717H298.5v1h1.192a3.924,3.924,0,0,1,.808.895V129.5h-1v1h1v2.355a.968.968,0,0,1-.808.645H298.5v1h.923a1.475,1.475,0,0,1,2.154,0h.923v-1h-.519c-.355,0-.644-.289-.481-.644h0V130.5h1v-1h-1V120.4C301.337,120.039,301.981,119.5,301.981,119.5Z" fill="#737373"/><path d="M314.5,126.5v11h22a2,2,0,0,0,2-2v-9Z" fill="#2d83cb"/><polygon points="331.584 124.5 320.916 124.5 326.564 129.625 331.584 124.5" fill="#fff"/><polygon points="356.5 215.5 167.5 215.5 167.5 204.5 169.5 204.5 169.5 213.5 356.5 213.5 356.5 215.5" fill="#d2d2d2"/></svg>