<svg xmlns="http://www.w3.org/2000/svg" viewBox="0 0 636 300"><title>swimlane-event-driven-programming</title><path d="M566.9,281.5h-103a3.17,3.17,0,0,1-3.1-3,3.039,3.039,0,0,1,3.1-3h103a3.039,3.039,0,0,1,3.1,3A3.1,3.1,0,0,1,566.9,281.5Z" fill="#c8c8c8"/><path d="M439.5,128.5h-61a1,1,0,0,1,0-2h60v-54a1,1,0,0,1,2,0v55A1,1,0,0,1,439.5,128.5Z" fill="#b2b2b2"/><path d="M203.5,156.5a1,1,0,0,1-1-1v-28a1,1,0,0,1,1-1h62a1,1,0,0,1,0,2h-61v27A1,1,0,0,1,203.5,156.5Z" fill="#b2b2b2"/><path d="M468.5,210.5h-29a1,1,0,0,1-1-1v-67h-63a1,1,0,0,1,0-2h64a1,1,0,0,1,1,1v67h28a1,1,0,0,1,0,2Z" fill="#b2b2b2"/><path d="M364.1,235.5h88.528a5.708,5.708,0,0,0,5.636-4.294A5.592,5.592,0,0,0,452.6,224.5H397.013c-5.625,0-5.438-6,0-6l7.615-1a5.708,5.708,0,0,0,5.636-4.294A5.592,5.592,0,0,0,404.6,206.5H346.172a5.708,5.708,0,0,0-5.636,4.294A5.592,5.592,0,0,0,346.2,217.5h20.775c5.813,0,5.063,6-.562,6l-2.215,1a5.891,5.891,0,0,0-5.775,5A5.558,5.558,0,0,0,364.1,235.5Z" fill="#d4e6f4"/><path d="M321.5,195.6a67.9,67.9,0,1,1,67.9-67.9A67.977,67.977,0,0,1,321.5,195.6Zm0-133.8a65.9,65.9,0,1,0,65.9,65.9A65.974,65.974,0,0,0,321.5,61.8Z" fill="#b2b2b2"/><path d="M299.3,149.2a31.616,31.616,0,0,0,53.8-26l-7.3.9a23.809,23.809,0,0,1-7,19.8,24.323,24.323,0,0,1-34.4,0l5.4-5.4H293.5l.1,16.2Z" fill="#ffb900"/><path d="M305,110a24.206,24.206,0,0,1,34-.3l-5.8,5.8h16.3l-.1-16.2-5.2,5.2a31.815,31.815,0,0,0-44.5.3,31.352,31.352,0,0,0-9.1,25.1l7.3-.9A24.57,24.57,0,0,1,305,110Z" fill="#ffb900"/><path d="M512.335,155.5l-44.835.059.165,121.941,44.835-.059Z" fill="#c2c2c2"/><path d="M468.3,202.5h44.2l.2,15H468.5Z" fill="#ffb900"/><path d="M512.5,246.5l-43.995.057,0,3.943,44-.057Z" fill="#939393"/><path d="M468.1,173.5l-.1-4,44.5-.1-.1-13.9h28.1l.1,122-28.1.1V265.5l-44,.1v-4.1h44l-.1-42-43.9.1v-4.1l44-.1V204.5l-44,.1v-4.1h44v-11l-44,.1v-4.1h44v-12Z" fill="#939393"/><path d="M512.5,231.5l-43.995.056,0,3.944,44-.056Z" fill="#939393"/><path d="M474.7,162.9a1.8,1.8,0,1,0,1.8-1.8A1.793,1.793,0,0,0,474.7,162.9Z" fill="#ed8422"/><path d="M481.7,162.9a1.8,1.8,0,1,0,1.8-1.8A1.793,1.793,0,0,0,481.7,162.9Z" fill="#ed8422"/><path d="M474.8,179.2a1.8,1.8,0,1,0,1.8-1.8A1.679,1.679,0,0,0,474.8,179.2Z" fill="#ed8422"/><path d="M481.7,179.2a1.8,1.8,0,1,0,1.8-1.8A1.679,1.679,0,0,0,481.7,179.2Z" fill="#ed8422"/><path d="M474.8,194.4a1.8,1.8,0,1,0,1.8-1.8A1.793,1.793,0,0,0,474.8,194.4Z" fill="#ed8422"/><path d="M481.7,194.4a1.8,1.8,0,1,0,1.8-1.8A1.859,1.859,0,0,0,481.7,194.4Z" fill="#ed8422"/><path d="M474.8,209.7a1.8,1.8,0,1,0,1.8-1.8A1.793,1.793,0,0,0,474.8,209.7Z" fill="#ed8422"/><path d="M481.8,209.7a1.8,1.8,0,1,0,1.8-1.8A1.733,1.733,0,0,0,481.8,209.7Z" fill="#ed8422"/><path d="M474.8,225a1.8,1.8,0,1,0,1.8-1.8A1.733,1.733,0,0,0,474.8,225Z" fill="#ed8422"/><path d="M481.8,225a1.8,1.8,0,1,0,1.8-1.8A1.679,1.679,0,0,0,481.8,225Z" fill="#ed8422"/><path d="M474.8,240.2a1.8,1.8,0,1,0,1.8-1.8A1.859,1.859,0,0,0,474.8,240.2Z" fill="#ed8422"/><path d="M481.8,240.2a1.8,1.8,0,1,0,1.8-1.8A1.793,1.793,0,0,0,481.8,240.2Z" fill="#ed8422"/><path d="M474.9,255.5a1.8,1.8,0,1,0,1.8-1.8A1.793,1.793,0,0,0,474.9,255.5Z" fill="#ed8422"/><path d="M481.8,255.5a1.8,1.8,0,1,0,1.8-1.8A1.793,1.793,0,0,0,481.8,255.5Z" fill="#ed8422"/><path d="M474.9,271.4a1.8,1.8,0,1,0,1.8-1.8A1.793,1.793,0,0,0,474.9,271.4Z" fill="#ed8422"/><path d="M481.8,271.4a1.8,1.8,0,1,0,1.8-1.8A1.859,1.859,0,0,0,481.8,271.4Z" fill="#ed8422"/><path d="M469.6,24.3c-1.3.5-2.6,1-5.1,2-2.4.9-4.5.4-5.5-.5s-2.1-2-3.2-3.1a4.845,4.845,0,0,1-1.2-4.7c.2-1.4.6-2.6,1.4-5.9.5-2,.2-3.2-1.6-3.9a32.96,32.96,0,0,0-4.9-1.9,3.1,3.1,0,0,0-3.6,1.8c-.6,1.2-1.2,2.6-2.6,5.5-1.3,2.9-3,2.9-4.4,2.9H435c-1.7,0-3-.5-3.6-1.7s-2.6-4.3-4-6.5-2.9-1.6-3.9-1.1-2.8,1.4-4.1,2a2.64,2.64,0,0,0-1.5,3.3c.4,1.5,1.5,4.7,2.2,7s.1,3.6-1,4.7c0,0-1.3,1.2-2.8,2.6a4.692,4.692,0,0,1-4.4,1.1c-1.5-.2-3.9-.9-6.3-1.5s-3.5.6-3.9,1.9-1.1,3.4-1.5,4.7a2.864,2.864,0,0,0,1.8,3.3c1.4.7,3.8,2,5.4,2.8a4.286,4.286,0,0,1,2.5,3.6c.2,2,.2,2.7.4,4.5a3.9,3.9,0,0,1-2.3,4.2c-1.7.9-3.5,1.7-5.8,2.9a2.723,2.723,0,0,0-1.5,3.7c.7,1.7,1.4,3,2.1,4.6a3.009,3.009,0,0,0,3.8,1.8c1.6-.6,3.8-1.5,5.9-2.4a4.079,4.079,0,0,1,4.8,1.1c1.3,1.3,3.3,3,3.3,3a3.857,3.857,0,0,1,1.2,4.6c-.5,1.8-1,3-1.7,5.5-.8,2.4-.1,3.4,1.7,4.3s2.4,1.2,3.9,1.9a3.147,3.147,0,0,0,4.3-1.5c.6-1.3,1.5-3.5,2.6-5.9a4.377,4.377,0,0,1,4.4-2.7,24.739,24.739,0,0,1,3.8.1c2,.3,2.9.3,4.1,2.2.8,1.2,1.4,2.2,3.2,5.1,1.1,1.8,2.1,2.3,3.9,1.6a46.691,46.691,0,0,0,5-2.3c1.6-1,1.4-2.4,1-3.6s-1-2.7-2.2-5.7c-1.1-3,0-4.2,1-5.1,1-1,1.7-1.8,3-3.1a3.83,3.83,0,0,1,4-.9c1.5.3,4.3.8,6.9,1.3,2.5.6,3.1-1,3.5-2s1-2.9,1.4-4.3a2.533,2.533,0,0,0-1.3-3.3c-1.4-.8-4.4-2.2-6.5-3.3a3.617,3.617,0,0,1-2.3-3.8V41.4a3.8,3.8,0,0,1,2.5-4c1.6-.9,3.2-1.6,5.4-2.7,2.3-1.1,2.3-1.9,1.7-3.8s-1-2.8-1.5-4.4A3.017,3.017,0,0,0,469.6,24.3Zm-23,32.1a14.475,14.475,0,1,1,4.8-19.9A14.477,14.477,0,0,1,446.6,56.4Z" fill="#939393"/><path d="M431.566,199.23h-2.132V197.1h2.132Zm0-4.26h-2.132v-2.13h2.132Zm0-4.26h-2.132v-2.13h2.132Zm0-4.26h-2.132v-2.13h2.132Zm0-4.26h-2.132v-2.13h2.132Zm0-4.26h-2.132V175.8h2.132Zm0-4.26h-2.132v-2.13h2.132Zm0-4.26h-2.132v-2.13h2.132Zm0-4.26h-2.132v-2.13h2.132Zm0-4.26h-2.132v-2.13h2.132Zm0-4.26h-2.132V154.5h2.132Z" fill="#d2d2d2"/><path d="M429.5,121.566h-2.13v-2.132h2.13Zm-4.26,0h-2.13v-2.132h2.13Zm-4.26,0h-2.13v-2.132h2.13Zm-4.26,0h-2.13v-2.132h2.13Zm-4.26,0h-2.13v-2.132h2.13Zm-4.26,0h-2.13v-2.132h2.13Zm-4.26,0h-2.13v-2.132h2.13Zm-4.26,0h-.18v-2.132h.18Z" fill="#d2d2d2"/><path d="M252.5,135.566h-2.13v-2.132h2.13Zm-4.26,0h-2.13v-2.132h2.13Zm-4.26,0h-2.13v-2.132h2.13Zm-4.26,0h-2.13v-2.132h2.13Zm-4.26,0h-2.13v-2.132h2.13Zm-4.26,0h-2.13v-2.132h2.13Zm-4.26,0h-2.13v-2.132h2.13Zm-4.26,0h-.18v-2.132h.18Z" fill="#d2d2d2"/><path d="M197.566,148.5h-2.132v-2.13h2.132Zm0-4.26h-2.132v-2.13h2.132Zm0-4.26h-2.132v-2.13h2.132Zm0-4.26h-2.132v-2.13h2.132Z" fill="#d2d2d2"/><path d="M448.566,102.41h-2.132v-2.13h2.132Zm0-4.26h-2.132V96.02h2.132Zm0-4.26h-2.132V91.76h2.132Zm0-4.26h-2.132V87.5h2.132Z" fill="#d2d2d2"/><path d="M275.5,284.5H86.5a6.018,6.018,0,0,1-6-6v-119a6.018,6.018,0,0,1,6-6h189a6.018,6.018,0,0,1,6,6V278.591A6,6,0,0,1,275.5,284.5Z" fill="#d4e6f4"/><path d="M80.5,203.9v74.6a6.018,6.018,0,0,0,6,6h74.6Z" fill="#e8f2f9"/><path d="M281.5,174.5v-14a6.018,6.018,0,0,0-6-6H86.5a6.018,6.018,0,0,0-6,6v14Z" fill="#2d83cb"/><path d="M224.58,222.5H135.42a3.944,3.944,0,0,1-3.92-3.957V198.457a3.943,3.943,0,0,1,3.92-3.957h89.16a3.944,3.944,0,0,1,3.92,3.957v20.086A3.821,3.821,0,0,1,224.58,222.5Z" fill="#fff"/><path d="M268.9,167.4a3.3,3.3,0,1,0-3.3-3.3A3.3,3.3,0,0,0,268.9,167.4Z" fill="#b5d5ea"/><path d="M255.7,167.4a3.3,3.3,0,1,0-3.3-3.3A3.3,3.3,0,0,0,255.7,167.4Z" fill="#b5d5ea"/><path d="M242.5,167.4a3.3,3.3,0,1,0-3.3-3.3A3.3,3.3,0,0,0,242.5,167.4Z" fill="#b5d5ea"/><path d="M201,154.5H86.5a6.018,6.018,0,0,0-6,6v14H221.4Z" fill="#106ebe"/><path d="M146.007,194.5h-10.55a3.962,3.962,0,0,0-3.957,3.957v20.086a3.962,3.962,0,0,0,3.957,3.957h38.449Z" fill="#f3f3f3"/><path d="M187.5,234.5h-73v4h73Z" fill="#b2b2b2"/><path d="M245.5,246.5h-131v4h131Z" fill="#b2b2b2"/><path d="M245.5,258.5h-131v4h131Z" fill="#b2b2b2"/><path d="M275,286.321H86A7.329,7.329,0,0,1,78.679,279V160A7.329,7.329,0,0,1,86,152.679H275A7.329,7.329,0,0,1,282.321,160V279.091A7.285,7.285,0,0,1,275,286.321Zm-189-131A4.684,4.684,0,0,0,81.321,160V279A4.684,4.684,0,0,0,86,283.679H275a4.7,4.7,0,0,0,4.682-4.588V160A4.684,4.684,0,0,0,275,155.321Z" fill="#4393d4"/><path d="M224.58,194.5a3.944,3.944,0,0,1,3.92,3.957v20.086a3.943,3.943,0,0,1-3.92,3.957H135.42a3.944,3.944,0,0,1-3.92-3.957V198.457a3.943,3.943,0,0,1,3.92-3.957Zm-.48-2H135.9a6.419,6.419,0,0,0-6.4,6.4v19.2a6.419,6.419,0,0,0,6.4,6.4h88.2a6.419,6.419,0,0,0,6.4-6.4V198.9A6.4,6.4,0,0,0,224.1,192.5Z" fill="#f0ae00"/><path d="M217.5,224.6l-24.3-17.9a1.289,1.289,0,0,0-2,1.2l3.4,30.1a1.294,1.294,0,0,0,2.3.6l6.7-9.4a1.02,1.02,0,0,1,.8-.5l12.5-1.8A1.3,1.3,0,0,0,217.5,224.6Z" fill="#737373"/><rect x="183.111" y="188.466" width="2.478" height="11.268" transform="translate(-74.336 125.242) rotate(-31.57)" fill="#737373"/><rect x="189.868" y="191.262" width="11.265" height="2.477" transform="translate(-44.578 325.312) rotate(-73.508)" fill="#737373"/><rect x="199.035" y="196.011" width="11.229" height="2.478" transform="translate(-78.614 173.786) rotate(-39.21)" fill="#737373"/><rect x="171.123" y="210.861" width="11.254" height="2.478" transform="translate(-47.249 50.696) rotate(-14.42)" fill="#737373"/><rect x="175.961" y="196.237" width="2.478" height="11.227" transform="translate(-71.774 302.623) rotate(-70.757)" fill="#737373"/></svg>