<svg xmlns="http://www.w3.org/2000/svg" viewBox="0 0 636 300"><title>swimlane-webform</title><path d="M553.456,253.5h-352.4a2.932,2.932,0,0,1-2.694-3,2.865,2.865,0,0,1,2.694-3h352.4a2.808,2.808,0,0,1,2.694,3A2.87,2.87,0,0,1,553.456,253.5Z" fill="#c8c8c8"/><rect x="176.5" y="30.5" width="322" height="219" rx="6.797" ry="6.797" fill="#69afe5"/><rect x="185.5" y="59.5" width="303" height="181" rx="2.438" ry="2.438" fill="#fff"/><rect x="76.5" y="127.5" width="130" height="139" fill="#737373"/><rect x="184.5" y="153.5" width="7" height="7" fill="#fff"/><rect x="75.5" y="126.5" width="130" height="139" fill="#d2d2d2"/><rect x="100.5" y="177.5" width="6" height="6" fill="#c2c2c2"/><rect x="100.5" y="188.5" width="6" height="6" fill="#c2c2c2"/><rect x="86.5" y="155.5" width="77" height="5" fill="#e8e8e8"/><rect x="99.5" y="166.5" width="69" height="5" fill="#e8e8e8"/><rect x="112.5" y="177.5" width="38" height="5" fill="#e8e8e8"/><rect x="112.5" y="188.5" width="64" height="5" fill="#e8e8e8"/><rect x="100.5" y="221.5" width="6" height="6" fill="#c2c2c2"/><rect x="112.5" y="221.5" width="38" height="5" fill="#e8e8e8"/><rect x="100.5" y="232.5" width="6" height="6" fill="#c2c2c2"/><rect x="112.5" y="232.5" width="38" height="5" fill="#e8e8e8"/><rect x="86.5" y="135.5" width="109" height="13" fill="#a6a6a6"/><rect x="86.5" y="200.5" width="109" height="13" fill="#a6a6a6"/><rect x="90.5" y="166.5" width="5" height="5" fill="#c2c2c2"/><rect x="184.5" y="203.5" width="7" height="7" fill="#fff"/><polygon points="201.5 164.73 199.27 164.73 199.27 162.5 201 162.5 201 161.27 201.5 161.27 201.5 162.5 202.73 162.5 202.73 163 201.5 163 201.5 164.73" fill="#939393"/><rect x="342.5" y="84.5" width="127" height="78" fill="#d2d2d2"/><rect x="342.5" y="172.5" width="117" height="9" fill="#69afe5"/><rect x="185.5" y="41.5" width="105" height="7" fill="#d9ebf9"/><rect x="340.5" y="210.5" width="84" height="13" fill="#d2d2d2"/><rect x="430.5" y="210.5" width="41" height="13" fill="#d2d2d2"/><path d="M472.365,224.365h-42.73v-14.73h42.73Zm-41-1.73h39.27v-11.27h-39.27Z" fill="#b2b2b2"/><rect x="197.5" y="146.5" width="7" height="7" fill="#fff"/><rect x="117.5" y="98.5" width="24" height="2" fill="#f0ae00"/><rect x="122.5" y="105.5" width="19" height="2" fill="#f0ae00"/><rect x="127.5" y="112.5" width="14" height="2" fill="#f0ae00"/><rect x="149.5" y="99.5" width="130" height="77" fill="#fff"/><rect x="173.5" y="149.5" width="6" height="6" fill="#d2d2d2"/><rect x="173.5" y="160.5" width="6" height="6" fill="#d2d2d2"/><rect x="172.5" y="138.5" width="69" height="5" fill="#d2d2d2"/><rect x="185.5" y="149.5" width="38" height="5" fill="#d2d2d2"/><rect x="185.5" y="160.5" width="64" height="5" fill="#d2d2d2"/><rect x="163.5" y="138.5" width="5" height="5" fill="#d2d2d2"/><polygon points="378.58 84.5 342.5 84.5 342.5 162.5 456.628 162.5 378.58 84.5" fill="#c2c2c2"/><rect x="356.5" y="188.5" width="42" height="8" fill="#d2d2d2"/><path d="M346.8,199.524a6.092,6.092,0,1,1,6.1-6.091,6.1,6.1,0,0,1-6.1,6.091m0-11.193a5.1,5.1,0,1,0,5.107,5.1,5.111,5.111,0,0,0-5.107-5.1" fill="#6597bf"/><path d="M349.723,193.49a2.98,2.98,0,1,1-2.981-2.98,2.98,2.98,0,0,1,2.981,2.98" fill="#69afe5"/><rect x="229.5" y="191.5" width="81" height="8" fill="#a6a6a6"/><path d="M219.624,202.505a6.093,6.093,0,1,1,6.1-6.094,6.1,6.1,0,0,1-6.1,6.094m0-11.2a5.1,5.1,0,1,0,5.107,5.1,5.111,5.111,0,0,0-5.107-5.1" fill="#6597bf"/><path d="M222.548,196.469a2.981,2.981,0,1,1-2.981-2.979,2.98,2.98,0,0,1,2.981,2.979" fill="#69afe5"/><rect x="229.5" y="211.5" width="73" height="8" fill="#a6a6a6"/><path d="M219.624,222.363a6.092,6.092,0,1,1,6.1-6.091,6.1,6.1,0,0,1-6.1,6.091m0-11.195a5.1,5.1,0,1,0,5.107,5.1,5.112,5.112,0,0,0-5.107-5.1" fill="#6597bf"/><rect x="428.5" y="188.5" width="42" height="8" fill="#d2d2d2"/><path d="M418.337,199.524a6.092,6.092,0,1,1,6.1-6.091,6.1,6.1,0,0,1-6.1,6.091m0-11.193a5.1,5.1,0,1,0,5.107,5.1,5.11,5.11,0,0,0-5.107-5.1" fill="#6597bf"/><polygon points="424.5 223.5 423.5 223.5 423.5 210.5 340.5 210.5 340.5 209.5 424.5 209.5 424.5 223.5" fill="#939393"/><rect x="410.5" y="210.5" width="13" height="13" fill="#69afe5"/><polygon points="419.829 214.5 417.286 217.676 414.743 214.5 413.47 214.5 417.286 219.268 421.101 214.5 419.829 214.5" fill="#666"/><path d="M538.722,250.455l-.93-4.692,3.086-.637.9,4.838a1.49,1.49,0,0,1-1.134,1.812,1.6,1.6,0,0,1-1.923-1.321" fill="#505050"/><polygon points="517.28 87.78 506.357 89.939 500.328 91.147 528.177 234.477 533.952 233.428 545.199 231.216 517.28 87.78" fill="#d2d2d2"/><polygon points="542.474 247.486 545.231 231.152 528.218 234.414 537.027 248.481 542.474 247.486" fill="#737373"/><polygon points="500.321 91.112 528.159 234.419 534.412 233.223 506.48 89.914 500.321 91.112" fill="#a6a6a6"/><path d="M514.6,72.336a2.5,2.5,0,0,0-2.908-2.077L505.18,71.6c-.642.117-1.611.293-2.577.473-.788.076-1.753.252-2.4.371l-.831.219a2.579,2.579,0,0,0-1.923,2.95l1.829,9.3a.769.769,0,0,0,.847.641l15.623-3.111a.686.686,0,0,0,.637-.794Z" fill="#d2d2d2"/><path d="M505.225,83.84l-2.169-11.126a.79.79,0,0,0-.93-.587c-.644.119-2.267.374-3.1.531-1.528.288-1.949,1.063-1.594,2.812l1.858,9.5a.9.9,0,0,0,1.1.588l4.122-.851a.857.857,0,0,0,.695-.982" fill="#a6a6a6"/><polygon points="540.88 204.052 536.773 183.463 538.894 182.943 542.843 203.635 540.88 204.052" fill="#d2d2d2"/><polygon points="539.825 204.381 535.702 183.796 537.835 183.259 541.984 203.974 539.825 204.381" fill="#a6a6a6"/><polygon points="500.893 85.396 501.952 90.818 516.065 88.025 514.962 82.6 500.893 85.396" fill="#737373"/><path d="M326.344,162.426h-1.851v-1.852h1.851Zm-5.554,0h-1.851v-1.852h1.851Zm-5.554,0h-1.851v-1.852h1.851Zm-5.553,0h-1.852v-1.852h1.852Zm-5.555,0h-1.851v-1.852h1.851Zm-5.553,0h-1.851v-1.852h1.851Zm-5.554,0h-1.852v-1.852h1.852Zm-5.554,0h-1.851v-1.852h1.851Zm-5.554,0h-1.851v-1.852h1.851Zm47.513-2.473h-1.852V158.1h1.852Zm0-5.554h-1.852v-1.851h1.852Zm0-5.553h-1.852v-1.852h1.852Zm0-5.554h-1.852V141.44h1.852Zm0-5.555h-1.852v-1.85h1.852Zm0-5.553h-1.852v-1.852h1.852Zm0-5.554h-1.852v-1.852h1.852Zm0-5.554h-1.852v-1.851h1.852Zm0-5.554h-1.852v-1.851h1.852Zm0-5.554h-1.852v-1.851h1.852Zm0-5.554h-1.852v-1.851h1.852Zm0-5.554h-1.852V97.009h1.852Zm-129-.36h-1.852V96.648h1.852Zm129-5.193h-1.852V91.455h1.852Zm-129-.361h-1.852V91.1h1.852Zm129-5.193h-1.852V85.9h1.852Zm-129-.36h-1.852V85.541h1.852ZM326.2,85.426h-1.85V83.574h1.85Zm-5.553,0h-1.852V83.574h1.852Zm-5.554,0H313.24V83.574h1.851Zm-5.554,0h-1.851V83.574h1.851Zm-5.554,0h-1.851V83.574h1.851Zm-5.554,0h-1.851V83.574h1.851Zm-5.554,0h-1.851V83.574h1.851Zm-5.554,0H285.47V83.574h1.851Zm-5.553,0h-1.852V83.574h1.852Zm-5.554,0h-1.852V83.574h1.852Zm-5.554,0h-1.851V83.574h1.851Zm-5.554,0h-1.852V83.574h1.852Zm-5.554,0H257.7V83.574h1.851Zm-5.554,0h-1.851V83.574H254Zm-5.554,0h-1.851V83.574h1.851Zm-5.554,0h-1.851V83.574h1.851Zm-5.554,0h-1.851V83.574h1.851Zm-5.554,0h-1.851V83.574h1.851Zm-5.553,0h-1.852V83.574h1.852Zm-5.554,0h-1.852V83.574h1.852Zm-5.554,0H213.27V83.574h1.851Zm-5.554,0h-1.851V83.574h1.851Zm-5.554,0h-1.851V83.574h1.851Z" fill="#f0ae00"/><rect x="159.5" y="127.5" width="77" height="5" fill="#d2d2d2"/><rect x="160.5" y="108.5" width="109" height="13" fill="#737373"/><rect x="258.5" y="111.5" width="7" height="7" fill="#fff"/><path d="M280.5,178.5h-133v-81h133Zm-129-4h125v-73h-125Z" fill="#f0ae00"/><path d="M250.5,166.63a12.162,12.162,0,0,1-1.788,7.067c-2.043,3.905-2.212,5.754-2.212,7.457V184.5H228.46c-1.062-2.366-5.075-11.219-7.763-16.078-1.2-2.175-1.466-3.959-.758-5.161A2.342,2.342,0,0,1,221.7,162.1c1.138,0,1.561.326,1.8.68V166.5h2v-9.565a2.6,2.6,0,0,1,2.657-2.658,2.258,2.258,0,0,1,2.343,2.22v6h2v-7.785a2.475,2.475,0,0,1,2.725-2.156c1.927,0,3.275,1.055,3.275,2.567V162.5h2v-6.01a1.852,1.852,0,0,1,2-1.613c1.365,0,2,1.782,2,2.983v5.64h2v-3.888a2.02,2.02,0,0,1,.978-1.779,2.054,2.054,0,0,1,3.022,1.7Z" fill="#fff"/><path d="M248.34,155.759a4.305,4.305,0,0,0-2.251.584,4.023,4.023,0,0,0-3.714-3.174,3.94,3.94,0,0,0-2.268.662,5.016,5.016,0,0,0-4.957-3.048,4.579,4.579,0,0,0-4.379,2.656,4.388,4.388,0,0,0-2.644-.878,4.582,4.582,0,0,0-4.627,4.625v3.375a5.26,5.26,0,0,0-1.788-.28,4.291,4.291,0,0,0-3.461,2.135c-.753,1.277-1.239,3.545.724,7.093,3.047,5.5,7.854,16.294,7.9,16.4l.263.59H248.5v-5.185c0-1.446.152-3.035,1.986-6.541a14.023,14.023,0,0,0,2.014-7.983v-7.06a4.188,4.188,0,0,0-3.975-3.972M250.5,166.63a12.162,12.162,0,0,1-1.788,7.067c-2.043,3.905-2.212,5.754-2.212,7.457V184.5H228.46c-1.062-2.366-5.075-11.219-7.763-16.078-1.2-2.175-1.466-3.959-.758-5.161A2.342,2.342,0,0,1,221.7,162.1c1.138,0,1.561.326,1.8.68V166.5h2v-9.565a2.6,2.6,0,0,1,2.657-2.658,2.258,2.258,0,0,1,2.343,2.22v6h2v-7.785a2.475,2.475,0,0,1,2.725-2.156c1.927,0,3.275,1.055,3.275,2.567V162.5h2v-6.01a1.852,1.852,0,0,1,2-1.613c1.365,0,2,1.782,2,2.983v5.64h2v-3.888a2.02,2.02,0,0,1,.978-1.779,2.054,2.054,0,0,1,3.022,1.7Z" fill="#737373"/><path d="M488.5,71.5V61.938a2.437,2.437,0,0,0-2.438-2.438H187.938a2.437,2.437,0,0,0-2.438,2.438V71.5Z" fill="#737373"/></svg>