<svg xmlns="http://www.w3.org/2000/svg" viewBox="0 0 636 300"><title>swimlane-razor-cross-platform</title><path d="M320.9,248.2a93.5,93.5,0,1,0-93.5-93.5A93.5,93.5,0,0,0,320.9,248.2Z" fill="#d2d2d2"/><path d="M333.6,171.2h-.4c-2.8,7.7-7.9,11.5-15.3,11.5a16.641,16.641,0,0,1-13.4-6c-3.4-4-5.1-9.6-5.1-16.7,0-9.2,2.4-16.7,7.1-22.5s10.4-8.7,17-8.7c6,0,9.8,2.4,11.3,7.1h.2l.6-6h13.6c-1.8,17.1-2.7,28.4-2.7,33.6,0,5.6,1.5,8.5,4.6,8.5,3.2,0,5.9-2.1,8-6.4s3.1-9.8,3.1-16.7c0-9.4-3-17.1-9-23.2-6-6-14.4-9-25.1-9-11.5,0-21.1,4-28.7,12S288,146.5,288,158.1c0,11.2,3.4,20,10.1,26.4s16.1,9.7,27.9,9.7a58.135,58.135,0,0,0,24.9-5.2v11.5c-6.9,2.9-15.7,4.4-26.6,4.4-14.9,0-26.9-4.3-36.3-12.8-9.3-8.5-14-20-14-34.3,0-14.7,5-27,14.9-37s22.7-15,38.4-15c14.5,0,26.2,3.9,35.2,11.6,9,7.8,13.4,18,13.4,30.6,0,10.4-2.7,18.8-8.2,25.1a25.916,25.916,0,0,1-20.3,9.4,14.533,14.533,0,0,1-9.7-3.2A10.123,10.123,0,0,1,333.6,171.2Zm-8.1-31.9c-3.6,0-6.6,2.1-8.8,6.2a28.809,28.809,0,0,0-3.4,14.3c0,3.9.8,6.9,2.3,9a6.957,6.957,0,0,0,6,3.2c3.8,0,6.8-2,8.9-6.1,2.2-4.1,3.3-9.5,3.3-16.3a11.681,11.681,0,0,0-2.3-7.6A7.724,7.724,0,0,0,325.5,139.3Z" fill="#fff"/><path d="M379.258,282.5H292.244a3.516,3.516,0,0,1-3.305-3.5,3.449,3.449,0,0,1,3.305-3.5h87.014a3.506,3.506,0,0,1,0,7Z" fill="#c8c8c8"/><path d="M405.478,123.918a3.67,3.67,0,0,1-3.7,3.582H344.326a3.516,3.516,0,0,1-3.305-3.5,3.449,3.449,0,0,1,3.305-3.5h57.848A3.318,3.318,0,0,1,405.478,123.918Z" fill="#a6a6a6"/><path d="M259.61,181.5H183.29a3.516,3.516,0,0,1-3.3-3.5,3.449,3.449,0,0,1,3.3-3.5h76.32a3.327,3.327,0,0,1,3.305,3.5A3.386,3.386,0,0,1,259.61,181.5Z" fill="#a6a6a6"/><path d="M393,190.5H376.5v-5.446a4.542,4.542,0,0,0-4.554-4.554H299.077a4.572,4.572,0,0,0-4.577,4.591V267.2a12.3,12.3,0,0,0,12.3,12.3h56.4a12.3,12.3,0,0,0,12.3-12.3V240.5H388A12.5,12.5,0,0,0,400.5,228V198A7.522,7.522,0,0,0,393,190.5Zm-.5,37.242a4.857,4.857,0,0,1-4.945,4.758H375.5v-34h17Z" fill="#a6a6a6"/><path d="M453.1,59.1c-1.3-4.4-5.7-13.7-21.1-16.2q.15-1.35.3-2.4c.4-3.4-1.9-6.5-4.8-6.5-7.7.1-98.6.1-106.3,0-2.9,0-5.2,3-4.8,6.5,2,16.6,9.7,60.4,37,78.2,8.4,5.5,9.8,5.6,20.9,5.4,11.3.3,12.5.1,20.9-5.4,8-5.2,14.3-12.6,19.3-20.9,8.4-.8,19.8-3.6,29.1-12C452.1,78,455.6,68.1,453.1,59.1ZM438.7,78a40.407,40.407,0,0,1-18.6,9.1c5.4-12,8.5-24.6,10.4-34.6,9.1,1.4,13.6,5.7,14.8,9.8C446.6,67,444.1,73,438.7,78Z" fill="#ffb900"/><path d="M285.914,87.5a11.258,11.258,0,0,0-7.845-3h-14.66l1.625-14.721a4.776,4.776,0,0,0-4.772-5.279H185.7a4.7,4.7,0,0,0-4.7,5.195L192.7,173.3a4.747,4.747,0,0,0,4.7,4.2H248.8a4.751,4.751,0,0,0,4.7-4.2l3.5-30.8h6.69a15.761,15.761,0,0,0,15.195-11.223l10.13-32.972A11.171,11.171,0,0,0,285.914,87.5Zm-5.431,8.623-10.276,33.344a7.042,7.042,0,0,1-6.85,5.037h-5.641l4.634-41h16.319a2.052,2.052,0,0,1,1.612.806A3.212,3.212,0,0,1,280.483,96.119Z" fill="#69afe5"/><path d="M192.1,64.7h-6.4a4.7,4.7,0,0,0-4.7,5.2l11.7,103.7a4.751,4.751,0,0,0,4.7,4.2h6.7Z" fill="#7dc6ef"/><path d="M259.659,70.649a1.982,1.982,0,0,1-1.688.851H198.9a2,2,0,0,1,0-4h59.2A2.011,2.011,0,0,1,259.659,70.649Z" fill="#7dc6ef"/><path d="M235.5,96.5H216.7V64.7h-2.5V96.6H196.7a2.22,2.22,0,0,0-2.2,2.2v37.5a2.22,2.22,0,0,0,2.2,2.2h38.7a2.22,2.22,0,0,0,2.2-2.2V98.8A2.1,2.1,0,0,0,235.5,96.5Z" fill="#006fc8"/><path d="M307.4,180.5h-8.3a4.583,4.583,0,0,0-4.6,4.591V267.2a12.3,12.3,0,0,0,12.3,12.3h.7v-99Z" fill="#b5b5b5"/><path d="M370.3,189.5H315.2a2.011,2.011,0,0,1-1.559-3.149,1.982,1.982,0,0,1,1.688-.851H370.3a2,2,0,0,1,0,4Z" fill="#b5b5b5"/><path d="M326.9,34h-5.6c-2.9,0-5.2,3-4.8,6.5,2,16.6,9.7,60.4,37,78.2,7.7,5,9.5,5.5,18.3,5.4C341,111.5,330.4,73.7,326.9,34Z" fill="#ffcb40"/><path d="M425.4,42.5H335.3a2.011,2.011,0,0,1-1.559-3.149,1.982,1.982,0,0,1,1.688-.851H425.4a2,2,0,0,1,0,4Z" fill="#ffcb40"/><path d="M383.8,66.5H365.1V34.1h-2.5V66.5H345.1a2.22,2.22,0,0,0-2.2,2.2v37.5a2.22,2.22,0,0,0,2.2,2.2h38.7a2.22,2.22,0,0,0,2.2-2.2V68.7A2.22,2.22,0,0,0,383.8,66.5Z" fill="#c78e00"/><path d="M347.3,212.2H328.6V180.3h-2.5v31.9H308.6a2.22,2.22,0,0,0-2.2,2.2v37.5a2.22,2.22,0,0,0,2.2,2.2h38.7a2.22,2.22,0,0,0,2.2-2.2V214.4A2.1,2.1,0,0,0,347.3,212.2Z" fill="#737373"/><path d="M233.405,136.5H194.7a2.206,2.206,0,0,1-2.2-2.2V96.7a2.206,2.206,0,0,1,2.2-2.2h38.6a2.206,2.206,0,0,1,2.2,2.2v37.595A2.075,2.075,0,0,1,233.405,136.5Z" fill="#fff"/><path d="M214.5,64.5h-3v32h3Z" fill="#fff"/><path d="M211.5,114.5V103.8l-11,1.5v9.2Z" fill="#939393"/><path d="M212.5,114.5h15V101.7l-15,2Z" fill="#939393"/><path d="M212.5,115.5v12.1l15,2V115.5Z" fill="#939393"/><path d="M211.5,115.5h-11l.1,10.3,10.9,1.6Z" fill="#939393"/><path d="M381.3,64.5H363.5v-30h-3v30H342.7a2.206,2.206,0,0,0-2.2,2.2v37.6a2.206,2.206,0,0,0,2.2,2.2h38.6a2.206,2.206,0,0,0,2.2-2.2V66.7A2.206,2.206,0,0,0,381.3,64.5Z" fill="#fff"/><path d="M369.5,92.3c-.7,0-1.2,0-1.1,1.1a25.309,25.309,0,0,1-.3,5.2c-.4,2.5.1,3.5,1.7,3.6,1.8.2,2.6-1.1,4.1-2.1,1.2-.8,2.7-1.7,3.3-2,.7-.4.7-1.1-.5-2-1-.8-1.6-1.2-1.7-2.4,0-1.2-.6-1.5-1.1-.7a2.683,2.683,0,0,1-2.7,1.4,1.189,1.189,0,0,1-1.1-1.3C370.1,92.5,370,92.3,369.5,92.3Z" fill="#737373"/><path d="M367.6,96.8l-.5,3.8s-1.8-.1-2.9-.1-3.1.1-3.1.1l-.1-1.7a7.291,7.291,0,0,0,3.7-.3A7.836,7.836,0,0,0,367.6,96.8Z" fill="#737373"/><path d="M356.6,92.5s2.2,3.3,2.7,3.9c.7,1,1.7-.3.4-1.4C358,93.6,356.6,92.5,356.6,92.5Z" fill="#737373"/><path d="M350.3,94.4c1.5-.5,1.8-.3,3.1-2s1.8-.7,2.7.4c.9,1.2,3.3,4.7,3.9,5.6a2.4,2.4,0,0,1-.2,3,2.787,2.787,0,0,1-3.5.4,35.457,35.457,0,0,0-5.3-1.5c-.9-.2-1.5-.5-1.4-1.8a14.311,14.311,0,0,0,.1-2.8C349.6,95,349.5,94.7,350.3,94.4Z" fill="#737373"/><path d="M361.659,76.8c.151-.069.254-.165.231-.216s-.164-.034-.314.035-.254.165-.231.216S361.508,76.872,361.659,76.8Z" fill="#737373"/><path d="M370.6,91.8h0a1.663,1.663,0,0,1,.1,1.1.892.892,0,0,0,1.1,1,2.967,2.967,0,0,0,1.9-1.7A3.313,3.313,0,0,0,370.6,91.8Z" fill="#737373"/><path d="M365.5,77.1c-.2-.1-.3-.1-.5-.2a1.107,1.107,0,0,0,.3-1.9.757.757,0,0,0-1.2.5v1a5.257,5.257,0,0,0-1.7-.4,2.967,2.967,0,0,0-1.1.4c.1-1.4-.3-1.8-1-1.6s-.5,1.3.3,2a4.349,4.349,0,0,0-.7.6c-.5.6-.7.9.3,2,1.1,1.2,2.2,1.6,3.7.8,1.7-.9,2.5-1.4,2.5-2.1S366,77.3,365.5,77.1Zm-.6-1.9c.1-.1.2,0,.3.1s.2.3.1.3c-.1.1-.2,0-.3-.1A.494.494,0,0,1,364.9,75.2Zm-2.1,1.3c0-.1.2-.1.4,0a1.238,1.238,0,0,1,.3.2c0,.1-.2.1-.4,0C362.9,76.7,362.8,76.6,362.8,76.5Zm-2.1-1.4c.1,0,.2.1.3.2a.3.3,0,0,1,0,.4c-.1,0-.2-.1-.3-.2C360.6,75.3,360.6,75.1,360.7,75.1Zm4.8,3.2c-.9.6-2.7,1.6-3.6,1.5a3.4,3.4,0,0,1-2.1-.9c-.4-.3-.3-.6.1-.3a3.823,3.823,0,0,0,2,.7c1,.1,2.5-.9,3.5-1.4C366,77.7,366.4,77.8,365.5,78.3Z" fill="#737373"/><path d="M371.2,81.7c-2.3-3-2.2-4.8-2.4-7-.2-2.3-1-6.1-6.1-5.8-4.7.3-4.1,5-3.9,7.2s.5,4-1,5.8a29.121,29.121,0,0,0-3.9,6.6,6.668,6.668,0,0,0-.5,3.1,1.581,1.581,0,0,1,1.2-.5.749.749,0,0,1,.5.1c-.7-1.9.8-4.8,1.3-5.5.2-.3.3-.4.2,0-.6,1.4-1.7,3.6-1,5.7a1.866,1.866,0,0,1,.4.3,9.422,9.422,0,0,1,1.8-6.2,3.486,3.486,0,0,1,1.6-1.1s-1.9-.3-.2-2.4a3.174,3.174,0,0,0,.5-2.4,1.3,1.3,0,0,1-.6-1.2,1.792,1.792,0,0,1,.8-1.4,3.342,3.342,0,0,1-.3-2.3c.3-1.3,1.3-1.3,2-.5a1.318,1.318,0,0,1,.3,1.5h1.4a2.036,2.036,0,0,1,.1-1.3,1.688,1.688,0,0,1,1.5-1,1.855,1.855,0,0,1,1.8,1.8,4.968,4.968,0,0,1-.3,1.8,1.222,1.222,0,0,1,.5,1.4c-.3.9-.2,1.1-.1,1.4s.9,2.1,2.4,5.5a12.34,12.34,0,0,1,1,6.4,1,1,0,0,1,.4.1v-.1a1.541,1.541,0,0,1,.7-.3,4.789,4.789,0,0,0-1.1-6.5c-.3-.2-.1-.1,0,0,2.2,1.2,2.6,3.9,1.5,6.4a3.1,3.1,0,0,1,2.3.7c.2,0,.7,0,.8-.3C375.9,89.1,373.6,84.7,371.2,81.7Zm-5.4-10.2c-.4.2-.6-.2-.6-.4,0-.5.5-.8.8-.4C366.3,71,366.1,71.2,365.8,71.5Zm3,8.4c-.4.4-1,.2-1.3-.7-.1-.4,0-.6.5-.3C368.5,79.1,369.2,79.5,368.8,79.9Z" fill="#737373"/><path d="M345.305,210.5H326.5v-30h-3v30H306.7a2.206,2.206,0,0,0-2.2,2.2v37.6a2.206,2.206,0,0,0,2.2,2.2h38.6a2.206,2.206,0,0,0,2.2-2.2V212.705A2.1,2.1,0,0,0,345.305,210.5Z" fill="#fff"/><path d="M317.2,247.5h-1V244a2.81,2.81,0,0,0-.3-1.5,1.29,1.29,0,0,0-1.1-.5,1.382,1.382,0,0,0-1.1.6,2.3,2.3,0,0,0-.4,1.4v3.5h-1v-3.7c0-1.2-.5-1.8-1.4-1.8a1.606,1.606,0,0,0-1.1.5,2.116,2.116,0,0,0-.4,1.4v3.5h-1v-6.2h1v1a1.967,1.967,0,0,1,1.9-1.1,1.5,1.5,0,0,1,1.1.4,1.456,1.456,0,0,1,.6.9,2.17,2.17,0,0,1,2.1-1.3c1.4,0,2,.8,2,2.5v3.9Z" fill="#737373"/><path d="M323.2,247.5h-1v-1a2.144,2.144,0,0,1-1.9,1.1,2.456,2.456,0,0,1-1.5-.5,1.9,1.9,0,0,1-.5-1.3c0-1.2.7-1.8,2-2l1.9-.3c0-1.1-.4-1.6-1.3-1.6a3.176,3.176,0,0,0-2,.8v-1a3.7,3.7,0,0,1,2.1-.6c1.5,0,2.2.8,2.2,2.3Zm-.9-3.1-1.5.2a4.053,4.053,0,0,0-1,.3,1.268,1.268,0,0,0-.4.9.908.908,0,0,0,.3.7,1.222,1.222,0,0,0,.9.3,1.656,1.656,0,0,0,1.2-.5,1.9,1.9,0,0,0,.5-1.3Z" fill="#737373"/><path d="M329.1,247.2a3.064,3.064,0,0,1-1.7.4,2.583,2.583,0,0,1-2.1-.9,3.3,3.3,0,0,1-.8-2.2,3.656,3.656,0,0,1,.9-2.5,3.4,3.4,0,0,1,3.7-.6v1a2.976,2.976,0,0,0-1.5-.5,1.99,1.99,0,0,0-1.6.7,2.792,2.792,0,0,0-.6,1.8,2.352,2.352,0,0,0,.6,1.7,2.035,2.035,0,0,0,1.5.6,2.976,2.976,0,0,0,1.5-.5v1Z" fill="#737373"/><path d="M333.9,247.7a4.07,4.07,0,0,1-3-1.2,4.771,4.771,0,0,1-1.1-3.2,4.859,4.859,0,0,1,1.1-3.3,4.143,4.143,0,0,1,3.1-1.2,3.7,3.7,0,0,1,2.9,1.2,4.771,4.771,0,0,1,1.1,3.2,5.331,5.331,0,0,1-1.1,3.4A4.081,4.081,0,0,1,333.9,247.7Zm.1-8.1a2.574,2.574,0,0,0-2.2,1,3.739,3.739,0,0,0-.9,2.6,4.237,4.237,0,0,0,.8,2.6,2.7,2.7,0,0,0,2.2,1,3.013,3.013,0,0,0,2.3-.9,4.033,4.033,0,0,0,.8-2.6,4.551,4.551,0,0,0-.8-2.7A2.574,2.574,0,0,0,334,239.6Z" fill="#737373"/><path d="M339.1,247.2V246a2.186,2.186,0,0,0,.5.3,1.421,1.421,0,0,0,.6.2c.2.1.4.1.6.2.2,0,.4.1.6.1a2.649,2.649,0,0,0,1.4-.3,1.231,1.231,0,0,0,.5-1,1.421,1.421,0,0,0-.2-.6,1.756,1.756,0,0,0-.4-.5c-.2-.1-.4-.3-.6-.4a5.938,5.938,0,0,0-.8-.4,5.582,5.582,0,0,1-.8-.5,4.233,4.233,0,0,1-.7-.5c-.2-.2-.3-.4-.5-.6a1.884,1.884,0,0,1-.2-.8,1.689,1.689,0,0,1,.3-1,2.336,2.336,0,0,1,.7-.7,3,3,0,0,1,1-.4,4.1,4.1,0,0,1,1.1-.1,4.386,4.386,0,0,1,1.9.3v1.1a3.146,3.146,0,0,0-2-.5,1.952,1.952,0,0,0-.7.1,1.421,1.421,0,0,0-.6.2.781.781,0,0,0-.4.4,1.421,1.421,0,0,0-.2.6,1.268,1.268,0,0,0,.1.6.781.781,0,0,0,.4.4c.2.1.4.3.6.4a5.938,5.938,0,0,0,.8.4c.3.2.6.3.9.5a4.349,4.349,0,0,1,.7.6,1.794,1.794,0,0,1,.5.7,2.388,2.388,0,0,1,.2.9,2.016,2.016,0,0,1-.3,1.1,2.336,2.336,0,0,1-.7.7,3,3,0,0,1-1,.4,4.869,4.869,0,0,1-1.2.1h-.5c-.2,0-.4-.1-.6-.1a1.421,1.421,0,0,1-.6-.2C339.3,247.3,339.2,247.2,339.1,247.2Z" fill="#737373"/></svg>