<svg xmlns="http://www.w3.org/2000/svg" viewBox="0 0 636 300"><title>swimlane-webform-control-library</title><rect x="98.5" y="95.5" width="194" height="148" rx="5.156" ry="5.156" fill="#b5d5ea"/><path d="M98.5,146.75v91.594a5.157,5.157,0,0,0,5.156,5.156H195.25Z" fill="#99c5e0"/><rect x="150.5" y="120.5" width="83" height="9" fill="#69afe5"/><rect x="150.5" y="149.5" width="93" height="9" fill="#69afe5"/><rect x="150.5" y="178.5" width="70" height="9" fill="#69afe5"/><rect x="120" y="116" width="19" height="19" rx="3.326" ry="3.326" fill="#fff"/><path d="M135.675,135.5h-12.35a3.829,3.829,0,0,1-3.825-3.825v-12.35a3.829,3.829,0,0,1,3.825-3.825h12.35a3.829,3.829,0,0,1,3.825,3.825v12.35A3.829,3.829,0,0,1,135.675,135.5Zm-12.35-19a2.829,2.829,0,0,0-2.825,2.825v12.35a2.829,2.829,0,0,0,2.825,2.825h12.35a2.829,2.829,0,0,0,2.825-2.825v-12.35a2.829,2.829,0,0,0-2.825-2.825Z" fill="#737373"/><rect x="120" y="145" width="19" height="19" rx="3.326" ry="3.326" fill="#fff"/><path d="M135.675,164.5h-12.35a3.829,3.829,0,0,1-3.825-3.825v-12.35a3.829,3.829,0,0,1,3.825-3.825h12.35a3.829,3.829,0,0,1,3.825,3.825v12.35A3.829,3.829,0,0,1,135.675,164.5Zm-12.35-19a2.829,2.829,0,0,0-2.825,2.825v12.35a2.829,2.829,0,0,0,2.825,2.825h12.35a2.829,2.829,0,0,0,2.825-2.825v-12.35a2.829,2.829,0,0,0-2.825-2.825Z" fill="#737373"/><rect x="120" y="174" width="19" height="19" rx="3.326" ry="3.326" fill="#fff"/><path d="M135.675,193.5h-12.35a3.829,3.829,0,0,1-3.825-3.825v-12.35a3.829,3.829,0,0,1,3.825-3.825h12.35a3.829,3.829,0,0,1,3.825,3.825v12.35A3.829,3.829,0,0,1,135.675,193.5Zm-12.35-19a2.829,2.829,0,0,0-2.825,2.825v12.35a2.829,2.829,0,0,0,2.825,2.825h12.35a2.829,2.829,0,0,0,2.825-2.825v-12.35a2.829,2.829,0,0,0-2.825-2.825Z" fill="#737373"/><rect x="120" y="203" width="19" height="19" rx="3.326" ry="3.326" fill="#fff"/><path d="M135.675,222.5h-12.35a3.829,3.829,0,0,1-3.825-3.825v-12.35a3.829,3.829,0,0,1,3.825-3.825h12.35a3.829,3.829,0,0,1,3.825,3.825v12.35A3.829,3.829,0,0,1,135.675,222.5Zm-12.35-19a2.829,2.829,0,0,0-2.825,2.825v12.35a2.829,2.829,0,0,0,2.825,2.825h12.35a2.829,2.829,0,0,0,2.825-2.825v-12.35a2.829,2.829,0,0,0-2.825-2.825Z" fill="#737373"/><rect x="150.5" y="207.5" width="93" height="9" fill="#69afe5"/><polygon points="128.363 131.01 122.801 125.827 124.001 124.539 128.122 128.379 134.137 120.258 135.552 121.305 128.363 131.01" fill="#939393"/><path d="M128.363,131.51a.5.5,0,0,1-.341-.134l-5.561-5.183a.5.5,0,0,1-.025-.707l1.2-1.288a.508.508,0,0,1,.348-.159.544.544,0,0,1,.359.134l3.712,3.459,5.681-7.672a.5.5,0,0,1,.7-.1l1.415,1.048a.5.5,0,0,1,.1.7l-7.188,9.7a.5.5,0,0,1-.356.2Zm-4.855-5.708,4.787,4.461,6.558-8.853-.612-.453-5.718,7.72a.5.5,0,0,1-.355.2.528.528,0,0,1-.387-.132l-3.755-3.5Z" fill="#939393"/><polygon points="128.363 160.058 122.801 154.875 124.001 153.588 128.122 157.427 134.137 149.306 135.552 150.354 128.363 160.058" fill="#939393"/><path d="M128.363,160.559a.5.5,0,0,1-.341-.134l-5.561-5.184a.5.5,0,0,1-.025-.707l1.2-1.287a.5.5,0,0,1,.707-.025l3.712,3.458,5.681-7.671a.5.5,0,0,1,.7-.1l1.415,1.048a.5.5,0,0,1,.1.7l-7.188,9.7a.5.5,0,0,1-.356.2Zm-4.854-5.709,4.786,4.462,6.558-8.853-.612-.453-5.718,7.719a.5.5,0,0,1-.355.2.516.516,0,0,1-.387-.132l-3.755-3.5Z" fill="#939393"/><rect x="267.5" y="194.5" width="207" height="33" rx="5.325" ry="5.325" fill="#e8f2f9"/><rect x="267.5" y="194.5" width="207" height="33" rx="5.325" ry="5.325" fill="#e6e6e6"/><path d="M271.5,202.531c0-3.031,1-4.031,4.054-4.031H474.381a5.343,5.343,0,0,0-5.187-4H273.263c-3.763,0-5.763,2-5.763,5.305v22.219a5.281,5.281,0,0,0,4,5.476Z" fill="#c2c2c2"/><path d="M469.2,194.5H431.5v33h37.694a5.305,5.305,0,0,0,5.306-5.306V199.805A5.3,5.3,0,0,0,469.2,194.5Z" fill="#4393d4"/><path d="M431.5,210.5v17h37.694a5.305,5.305,0,0,0,5.306-5.306V210.5Z" fill="#2d83cb"/><path d="M459.827,219.168l1.231-1.231-4.647-4.647a6.616,6.616,0,1,0-1.231,1.231Zm-12.111-6.448a4.874,4.874,0,1,1,6.893,0A4.88,4.88,0,0,1,447.716,212.72Z" fill="#fff"/><rect x="358.5" y="61.282" width="173" height="79" rx="3.942" ry="3.942" fill="#e6e6e6"/><rect x="405.5" y="78.5" width="92" height="9" fill="#c2c2c2"/><rect x="405.5" y="113.5" width="92" height="9" fill="#c2c2c2"/><path d="M386.04,94.177a9.407,9.407,0,1,0-9.407-9.407A9.406,9.406,0,0,0,386.04,94.177Z" fill="#fff"/><path d="M386.04,128.383a9.407,9.407,0,1,0-9.407-9.407A9.406,9.406,0,0,0,386.04,128.383Z" fill="#fff"/><path d="M391,84.6a5.146,5.146,0,0,1-5.131,5.131,5.039,5.039,0,0,1-5.131-5.131A5.131,5.131,0,0,1,391,84.6Z" fill="#69afe5"/><path d="M385.869,95.032A10.433,10.433,0,1,1,396.3,84.6,10.474,10.474,0,0,1,385.869,95.032Zm0-19.155a8.723,8.723,0,1,0,8.722,8.722A8.65,8.65,0,0,0,385.869,75.877Z" fill="#6597bf"/><path d="M385.869,129.238A10.433,10.433,0,1,1,396.3,118.805,10.474,10.474,0,0,1,385.869,129.238Zm0-19.155a8.722,8.722,0,1,0,8.722,8.722A8.649,8.649,0,0,0,385.869,110.083Z" fill="#6597bf"/><rect x="306.5" y="135.5" width="101" height="45" rx="5.215" ry="5.215" fill="#939393"/><path d="M306.5,158.5v17.774a5.226,5.226,0,0,0,5.226,5.226h90.548a5.226,5.226,0,0,0,5.226-5.226V158.5Z" fill="#737373"/><path d="M402.285,181.5h-90.57a6.22,6.22,0,0,1-6.213-6.213v-34.57a6.22,6.22,0,0,1,6.213-6.213h90.57a6.22,6.22,0,0,1,6.213,6.213v34.57A6.22,6.22,0,0,1,402.285,181.5Zm-90.57-45a4.222,4.222,0,0,0-4.217,4.217v34.57a4.222,4.222,0,0,0,4.217,4.217h90.57a4.222,4.222,0,0,0,4.217-4.217v-34.57a4.222,4.222,0,0,0-4.217-4.217Z" fill="#e6e6e6"/><path d="M346.239,169.754a9.449,9.449,0,0,1-7.273-2.945,10.815,10.815,0,0,1-2.732-7.661,11.456,11.456,0,0,1,2.784-8.086,9.779,9.779,0,0,1,7.558-3.017,9.239,9.239,0,0,1,7.127,2.929,10.855,10.855,0,0,1,2.7,7.661,11.5,11.5,0,0,1-2.768,8.13A9.6,9.6,0,0,1,346.239,169.754Zm.161-18.648a5.845,5.845,0,0,0-4.694,2.153,9.854,9.854,0,0,0-.052,11.309,5.668,5.668,0,0,0,4.6,2.139,5.94,5.94,0,0,0,4.761-2.036,8.5,8.5,0,0,0,1.743-5.7,8.9,8.9,0,0,0-1.692-5.815A5.721,5.721,0,0,0,346.4,151.106Z" fill="#fff"/><path d="M375.46,169.5h-4.54l-7.309-9.707c-.274-.362-.44-.606-.5-.293H362.5v10h-3v-21h3v10h.613a2.252,2.252,0,0,1,.5-.949l7.046-9.051h4.173l-8.244,10.075Z" fill="#fff"/><rect x="223.5" y="25.5" width="111" height="88" rx="7.733" ry="7.733" fill="#ffcb40"/><path d="M326.714,25.5H231.286a7.786,7.786,0,0,0-7.786,7.786V41.5h111V33.286A7.786,7.786,0,0,0,326.714,25.5Z" fill="#db9d00"/><rect x="238.5" y="87.5" width="14" height="14" fill="#fff"/><rect x="261.5" y="87.5" width="14" height="14" fill="#fff"/><rect x="284.5" y="87.5" width="14" height="14" fill="#fff"/><rect x="238.5" y="68.5" width="14" height="14" fill="#fff"/><rect x="307.5" y="87.5" width="14" height="14" fill="#fff"/><rect x="261.5" y="68.5" width="14" height="14" fill="#fff"/><rect x="284.5" y="68.5" width="14" height="14" fill="#fff"/><rect x="307.5" y="68.5" width="14" height="14" fill="#fff"/><rect x="261.5" y="48.5" width="14" height="14" fill="#939393"/><rect x="284.5" y="48.5" width="14" height="14" fill="#fff"/><rect x="307.5" y="48.5" width="14" height="14" fill="#fff"/><rect x="238.5" y="21.5" width="6" height="13" fill="#939393"/><rect x="315.5" y="21.5" width="7" height="14" fill="#939393"/></svg>